<svg xmlns="http://www.w3.org/2000/svg" viewBox="50 0 50 50"><polyline fill="#004991" points="50.13 48.98 50.13 0 99.1 0 99.1 48.98"/><path fill="#e40e20" d="M91.46,4.31l0-.23C74.37,3.5,58.2,16.38,57.73,32c.36,8.9,5.51,13,11.63,13a26.28,26.28,0,0,0,14.23-3.88l-1.23-2.36A26.22,26.22,0,0,1,71.67,42c-5.5.23-12.06-4.34-10.77-13.47.93-7.73,10.42-22.72,30.56-24.25"/><path fill="#e40e20" d="M89.7,10.52s-9.13,1.29-10,4.68a2.34,2.34,0,0,0,.47,2.23,8.52,8.52,0,0,0,1.34,1.47c.18.17,1.91,1.31,1.15,2-.52.36-1.06.7-1.61,1-.35.23-5.15,2.34-6.21,2.87s-4.38,2.77-4.51,4a2.17,2.17,0,0,0,.3,1.47,5.78,5.78,0,0,0,1.93,1.34c.82.35,1.93,1.23,1.4,1.64A19.72,19.72,0,0,1,72,34.41c-.7.41-5.21,2.52-5.62,4.63a16.66,16.66,0,0,1,7.73-4.4c.7-.23,1.88-.75,1.94-1.57a1.57,1.57,0,0,0-1.18-1.64c-.76-.29-2.75-.94-2.63-2.17a3.1,3.1,0,0,1,1.4-1.93,50.85,50.85,0,0,1,6.74-3.63c1.17-.53,4.81-1.85,4.74-3.22A2,2,0,0,0,84.2,19c-.72-.58-3.34-2.11-3-3.39a3.52,3.52,0,0,1,2-2.29,33.54,33.54,0,0,1,6.55-2.51Z"/></svg>
